# xmcd CD database file
#
# Track frame offsets:
#	150
#	19357
#	33842
#	47560
#	71605
#	88872
#	107037
#	130905
#	149545
#	169150
#	182607
#	199275
#	218987
#	239765
#	256912
#	272175
#
# Disc length: 3944 seconds
#
# Revision: 0
# Processed by: cddbd v1.4PL0 Copyright (c) Steve Scherf et al.
# Submitted via: Feurio! 1.64 - http://www.feurio.com
#
DISCID=f60f6610
DTITLE=Various Artist - Goldene Hits aus Österreich
DYEAR=1994
DGENRE=Austropop
TTITLE0=Rainhard Fendrich - Macho Macho
TTITLE1=Stefanie Werger - Lust auf Liebe
TTITLE2=Ostbahn Kurti and die Chefpartie - Es ist besser Du gehst
TTITLE3=Hubert von Goisern - Koa Hiatamadl
TTITLE4=Papermoon - Tell me a Poem
TTITLE5=Alex Rehak - No Time To Lose
TTITLE6=Joesi Prokopetz - Lieber Freund
TTITLE7=Ecco - Hexen
TTITLE8=Rainhard Fendrich - Tango Korrupti
TTITLE9=Ostbahn Kurti and die Chefpartie - Feuer
TTITLE10=Papermoon - Wer bist Du
TTITLE11=Waterloo - Love of my Life
TTITLE12=Joesi Prokopetz - Der Trick mit dem Hüftknick
TTITLE13=Sigi Maron - I woa a Noa mit meine Hoa
TTITLE14=Stefanie Werger - ... Zur lustigen Einsamkeit
TTITLE15=Hubert von Goisern - Weit, weit weg
EXTD=Pepi
EXTT0=
EXTT1=
EXTT2=
EXTT3=
EXTT4=
EXTT5=
EXTT6=
EXTT7=
EXTT8=
EXTT9=
EXTT10=
EXTT11=
EXTT12=
EXTT13=
EXTT14=
EXTT15=
PLAYORDER=
